<svg xmlns="http://www.w3.org/2000/svg" xmlns:xlink="http://www.w3.org/1999/xlink" width="162" zoomAndPan="magnify" viewBox="0 0 121.5 150.75" height="201" preserveAspectRatio="xMidYMid meet" version="1.0"><defs><clipPath id="a0a5ec4d6e"><path d="M 0 0.183594 L 120.253906 0.183594 L 120.253906 149.570312 L 0 149.570312 Z M 0 0.183594 " clip-rule="nonzero"/></clipPath><clipPath id="bd65f368b2"><path d="M 95 0.183594 L 120.253906 0.183594 L 120.253906 24 L 95 24 Z M 95 0.183594 " clip-rule="nonzero"/></clipPath><clipPath id="88ebd2a082"><path d="M 0 94 L 120.253906 94 L 120.253906 134 L 0 134 Z M 0 94 " clip-rule="nonzero"/></clipPath><clipPath id="ffefc23b8a"><path d="M 42.476562 0.363281 L 84.304688 0.363281 L 84.304688 149.75 L 42.476562 149.75 Z M 42.476562 0.363281 " clip-rule="nonzero"/></clipPath></defs><g clip-path="url(#a0a5ec4d6e)"><path fill="#f4f4f3" d="M 120.074219 23.75 L 120.074219 144.476562 C 120.074219 147.289062 117.800781 149.570312 114.996094 149.570312 L 5.222656 149.570312 C 2.417969 149.570312 0.144531 147.289062 0.144531 144.476562 L 0.144531 5.277344 C 0.144531 2.464844 2.417969 0.183594 5.222656 0.183594 L 95.285156 0.183594 Z M 120.074219 23.75 " fill-opacity="1" fill-rule="nonzero"/></g><g clip-path="url(#bd65f368b2)"><path fill="#edeceb" d="M 120.074219 23.75 L 100.324219 23.75 C 97.519531 23.75 95.246094 21.472656 95.246094 18.65625 L 95.246094 0.183594 Z M 120.074219 23.75 " fill-opacity="1" fill-rule="nonzero"/></g><g clip-path="url(#88ebd2a082)"><path fill="#f05458" d="M 0.144531 94.605469 L 120.113281 94.605469 L 120.113281 133.871094 L 0.144531 133.871094 Z M 0.144531 94.605469 " fill-opacity="1" fill-rule="nonzero"/></g><path fill="#f4f4f3" d="M 34.5625 117.03125 L 29.519531 117.03125 L 29.519531 124.75 C 29.519531 125.851562 29.253906 126.6875 28.722656 127.257812 C 28.191406 127.828125 27.546875 128.09375 26.753906 128.09375 C 25.917969 128.09375 25.273438 127.828125 24.742188 127.257812 C 24.25 126.6875 23.984375 125.851562 23.984375 124.785156 L 23.984375 103.765625 C 23.984375 102.550781 24.25 101.675781 24.820312 101.179688 C 25.386719 100.6875 26.257812 100.382812 27.472656 100.382812 L 34.523438 100.382812 C 36.609375 100.382812 38.199219 100.535156 39.335938 100.875 C 40.4375 101.179688 41.421875 101.714844 42.21875 102.433594 C 43.011719 103.15625 43.65625 104.03125 44.074219 105.058594 C 44.492188 106.085938 44.71875 107.261719 44.71875 108.554688 C 44.71875 111.332031 43.886719 113.421875 42.179688 114.863281 C 40.472656 116.308594 37.933594 117.03125 34.5625 117.03125 Z M 33.234375 104.5625 L 29.519531 104.5625 L 29.519531 112.886719 L 33.234375 112.886719 C 34.523438 112.886719 35.621094 112.738281 36.492188 112.46875 C 37.367188 112.203125 38.011719 111.75 38.464844 111.140625 C 38.917969 110.53125 39.148438 109.695312 39.148438 108.707031 C 39.148438 107.492188 38.804688 106.539062 38.085938 105.78125 C 37.328125 104.945312 35.699219 104.5625 33.234375 104.5625 Z M 33.234375 104.5625 " fill-opacity="1" fill-rule="nonzero"/><path fill="#f4f4f3" d="M 52.71875 100.421875 L 59.882812 100.421875 C 61.738281 100.421875 63.332031 100.609375 64.65625 100.953125 C 65.984375 101.296875 67.195312 101.941406 68.296875 102.890625 C 71.140625 105.324219 72.542969 109.011719 72.542969 113.953125 C 72.542969 115.585938 72.390625 117.070312 72.125 118.4375 C 71.859375 119.769531 71.402344 120.984375 70.796875 122.085938 C 70.191406 123.152344 69.433594 124.140625 68.523438 124.976562 C 67.804688 125.621094 67.007812 126.15625 66.136719 126.574219 C 65.265625 126.953125 64.355469 127.257812 63.367188 127.410156 C 62.382812 127.5625 61.246094 127.636719 59.996094 127.636719 L 52.832031 127.636719 C 51.84375 127.636719 51.085938 127.484375 50.554688 127.179688 C 50.0625 126.875 49.722656 126.457031 49.570312 125.886719 C 49.417969 125.355469 49.34375 124.632812 49.34375 123.761719 L 49.34375 103.765625 C 49.34375 102.585938 49.609375 101.714844 50.140625 101.179688 C 50.671875 100.6875 51.542969 100.421875 52.71875 100.421875 Z M 54.839844 104.753906 L 54.839844 123.226562 L 59.007812 123.226562 C 59.917969 123.226562 60.640625 123.191406 61.171875 123.152344 C 61.699219 123.113281 62.230469 122.960938 62.761719 122.773438 C 63.332031 122.582031 63.785156 122.277344 64.203125 121.933594 C 66.023438 120.375 66.96875 117.679688 66.96875 113.875 C 66.96875 111.179688 66.550781 109.164062 65.757812 107.832031 C 64.960938 106.503906 63.9375 105.628906 62.761719 105.285156 C 61.585938 104.90625 60.148438 104.753906 58.480469 104.753906 Z M 54.839844 104.753906 " fill-opacity="1" fill-rule="nonzero"/><path fill="#f4f4f3" d="M 93.578125 104.640625 L 82.738281 104.640625 L 82.738281 111.597656 L 91.796875 111.597656 C 92.632812 111.597656 93.273438 111.785156 93.691406 112.167969 C 94.109375 112.546875 94.296875 113.039062 94.296875 113.6875 C 94.296875 114.332031 94.070312 114.828125 93.65625 115.207031 C 93.238281 115.585938 92.59375 115.777344 91.796875 115.777344 L 82.738281 115.777344 L 82.738281 124.75 C 82.738281 125.886719 82.472656 126.726562 81.980469 127.292969 C 81.449219 127.828125 80.804688 128.132812 80.007812 128.132812 C 79.210938 128.132812 78.53125 127.863281 78.039062 127.292969 C 77.507812 126.726562 77.28125 125.886719 77.28125 124.785156 L 77.28125 103.765625 C 77.28125 102.96875 77.394531 102.320312 77.621094 101.828125 C 77.847656 101.332031 78.226562 100.953125 78.71875 100.726562 C 79.210938 100.496094 79.855469 100.382812 80.652344 100.382812 L 93.617188 100.382812 C 94.488281 100.382812 95.132812 100.574219 95.585938 100.953125 C 96.042969 101.332031 96.230469 101.863281 96.230469 102.472656 C 96.230469 103.121094 96.003906 103.652344 95.585938 104.03125 C 95.171875 104.410156 94.449219 104.640625 93.578125 104.640625 Z M 93.578125 104.640625 " fill-opacity="1" fill-rule="nonzero"/><g clip-path="url(#ffefc23b8a)"><path fill="#000000" d="M 79.589844 117.878906 C 79.472656 118.0625 79.492188 118.402344 79.15625 118.34375 C 79.082031 118.332031 78.992188 118.097656 78.996094 117.964844 C 79.011719 117.574219 79.238281 117.507812 79.566406 117.652344 C 79.578125 117.738281 79.621094 117.832031 79.589844 117.878906 Z M 76.847656 115.394531 C 76.820312 115.378906 76.769531 115.367188 76.769531 115.351562 C 76.765625 115.316406 76.789062 115.28125 76.800781 115.25 C 76.832031 115.261719 76.886719 115.277344 76.886719 115.285156 C 76.882812 115.324219 76.859375 115.359375 76.847656 115.394531 Z M 73.414062 120.625 C 73.152344 120.683594 72.917969 120.738281 72.660156 120.800781 C 72.660156 120.996094 72.660156 121.183594 72.660156 121.367188 C 72.84375 121.269531 73.03125 121.167969 73.378906 120.984375 C 73.160156 121.46875 73.015625 121.792969 72.851562 122.152344 C 72.675781 122.140625 72.496094 122.175781 72.351562 122.121094 C 71.914062 121.949219 71.78125 121.730469 71.914062 121.367188 C 72.101562 120.863281 72.304688 120.367188 72.542969 119.882812 C 72.730469 119.5 73.027344 119.214844 73.558594 119.199219 C 73.738281 119.699219 73.578125 120.152344 73.414062 120.625 Z M 72.855469 126.40625 C 72.8125 126.40625 72.773438 126.40625 72.730469 126.410156 C 72.714844 126.179688 72.703125 125.949219 72.6875 125.71875 C 72.742188 125.726562 72.800781 125.734375 72.855469 125.742188 C 72.855469 125.964844 72.855469 126.183594 72.855469 126.40625 Z M 73.625 114.488281 L 73.625 114.5625 L 73.539062 114.527344 Z M 73.859375 146.101562 C 73.707031 146.304688 73.574219 146.480469 73.40625 146.703125 C 73.605469 146.742188 73.757812 146.773438 73.953125 146.8125 C 74.171875 147.457031 74.316406 148.121094 74.164062 148.929688 C 73.914062 148.75 73.746094 148.644531 73.597656 148.519531 C 73.101562 148.117188 73.101562 148.113281 73.429688 147.386719 C 73.296875 147.128906 73.167969 146.871094 73.042969 146.628906 C 73.101562 146.210938 73.300781 146.082031 73.859375 146.101562 Z M 71.527344 144.359375 C 71.410156 144.121094 71.269531 143.898438 71.203125 143.660156 C 71.179688 143.574219 71.347656 143.441406 71.480469 143.257812 C 71.617188 143.691406 71.910156 144.003906 71.527344 144.359375 Z M 70.925781 136.59375 C 70.878906 136.609375 70.796875 136.546875 70.730469 136.519531 C 70.761719 136.453125 70.773438 136.347656 70.820312 136.332031 C 70.871094 136.3125 70.949219 136.378906 71.019531 136.40625 C 70.988281 136.472656 70.976562 136.574219 70.925781 136.59375 Z M 71.53125 122.351562 C 71.488281 122.269531 71.417969 122.191406 71.410156 122.105469 C 71.402344 122.050781 71.492188 121.992188 71.539062 121.933594 C 71.570312 122.003906 71.601562 122.078125 71.632812 122.148438 C 71.597656 122.214844 71.566406 122.28125 71.53125 122.351562 Z M 71.085938 111.128906 C 71.023438 111.140625 70.933594 111.113281 70.882812 111.070312 C 70.859375 111.050781 70.894531 110.957031 70.902344 110.898438 C 71 110.914062 71.097656 110.933594 71.214844 110.949219 C 71.15625 111.035156 71.128906 111.121094 71.085938 111.128906 Z M 69.949219 115.042969 C 69.820312 115.042969 69.6875 115.042969 69.558594 115.042969 C 69.558594 115.015625 69.558594 114.992188 69.558594 114.96875 C 69.6875 114.96875 69.820312 114.96875 69.953125 114.96875 C 69.953125 114.992188 69.953125 115.015625 69.949219 115.042969 Z M 69.699219 112.683594 C 69.753906 112.710938 69.84375 112.753906 69.84375 112.789062 C 69.835938 112.886719 69.792969 112.988281 69.730469 113.214844 C 69.679688 112.972656 69.652344 112.867188 69.636719 112.757812 C 69.632812 112.734375 69.695312 112.679688 69.699219 112.683594 Z M 69.75 110.207031 C 69.785156 110.265625 69.847656 110.324219 69.847656 110.386719 C 69.847656 110.441406 69.78125 110.496094 69.742188 110.554688 C 69.707031 110.496094 69.640625 110.433594 69.640625 110.375 C 69.644531 110.320312 69.710938 110.261719 69.75 110.207031 Z M 68.910156 115.070312 C 68.863281 115.125 68.757812 115.183594 68.707031 115.164062 C 68.609375 115.125 68.535156 115.03125 68.449219 114.957031 C 68.5 114.910156 68.550781 114.863281 68.601562 114.820312 C 68.679688 114.839844 68.769531 114.847656 68.828125 114.890625 C 68.875 114.929688 68.929688 115.046875 68.910156 115.070312 Z M 68.441406 112.066406 C 68.507812 112.101562 68.574219 112.136719 68.648438 112.175781 C 68.605469 112.226562 68.558594 112.277344 68.515625 112.328125 C 68.472656 112.277344 68.417969 112.230469 68.390625 112.171875 C 68.378906 112.152344 68.421875 112.101562 68.441406 112.066406 Z M 67.792969 106.992188 C 67.613281 107.183594 67.226562 107.210938 67.152344 106.992188 C 67.046875 106.6875 66.824219 106.539062 66.613281 106.34375 C 66.207031 105.960938 66.140625 105.488281 66.339844 104.988281 C 66.488281 104.609375 66.675781 104.246094 66.835938 103.898438 C 67.171875 103.78125 67.324219 103.996094 67.46875 104.183594 C 67.789062 104.597656 67.8125 105.097656 67.832031 105.59375 L 67.804688 105.574219 C 68.21875 106.296875 68.21875 106.53125 67.792969 106.992188 Z M 66.226562 108.605469 C 65.890625 108.421875 65.605469 108.246094 65.625 107.714844 C 65.941406 108.042969 66.480469 108.0625 66.226562 108.605469 Z M 65.46875 106.539062 C 65.445312 106.570312 65.261719 106.542969 65.253906 106.519531 C 65.234375 106.421875 65.234375 106.308594 65.257812 106.210938 C 65.277344 106.140625 65.34375 106.085938 65.457031 105.933594 C 65.527344 106.082031 65.59375 106.15625 65.589844 106.226562 C 65.578125 106.335938 65.53125 106.449219 65.46875 106.539062 Z M 64.25 93.898438 C 64.167969 93.941406 64.097656 94.003906 64.027344 94.015625 C 63.425781 94.097656 63.050781 94 63.050781 93.753906 C 63.050781 93.347656 63.421875 93.253906 63.695312 93.070312 C 64.09375 93.210938 64.304688 93.464844 64.25 93.898438 Z M 55.691406 89.984375 L 55.703125 89.90625 L 55.796875 89.953125 Z M 55 89.382812 L 55.0625 89.296875 L 55.085938 89.402344 Z M 52.566406 89.652344 C 52.527344 89.589844 52.484375 89.53125 52.460938 89.46875 C 52.453125 89.445312 52.496094 89.40625 52.515625 89.375 C 52.566406 89.421875 52.617188 89.46875 52.671875 89.519531 C 52.636719 89.5625 52.601562 89.605469 52.566406 89.652344 Z M 51.957031 85.257812 C 51.804688 85.195312 51.699219 85.1875 51.671875 85.136719 C 51.578125 84.96875 51.621094 84.804688 51.800781 84.734375 C 51.871094 84.707031 52.066406 84.804688 52.066406 84.835938 C 52.058594 84.972656 52 85.109375 51.957031 85.257812 Z M 49.265625 89.613281 C 49.058594 89.875 48.800781 89.945312 48.488281 89.613281 C 48.808594 88.746094 49.59375 88.125 49.960938 87.265625 C 50.03125 87.105469 50.269531 87.019531 50.5 86.847656 C 50.589844 87.203125 50.65625 87.46875 50.714844 87.710938 C 50.214844 88.371094 49.75 89 49.265625 89.613281 Z M 46.816406 89.773438 C 46.8125 89.726562 46.808594 89.675781 46.804688 89.625 C 47.011719 89.613281 47.222656 89.601562 47.429688 89.585938 C 47.433594 89.628906 47.4375 89.667969 47.445312 89.710938 C 47.234375 89.734375 47.027344 89.753906 46.816406 89.773438 Z M 54.398438 82.191406 C 54.214844 82.644531 53.929688 82.597656 53.601562 82.429688 C 53.757812 81.988281 54.03125 82.007812 54.398438 82.191406 Z M 53.238281 72.953125 C 53.164062 72.941406 53.097656 72.910156 53.019531 72.882812 C 53.070312 72.839844 53.117188 72.769531 53.164062 72.769531 C 53.21875 72.773438 53.269531 72.839844 53.324219 72.875 C 53.292969 72.902344 53.261719 72.957031 53.238281 72.953125 Z M 50.253906 68.71875 C 50.089844 68.859375 49.910156 68.847656 49.773438 68.679688 C 49.769531 68.683594 49.761719 68.6875 49.757812 68.691406 C 49.9375 69.179688 49.910156 69.191406 49.308594 69.175781 C 49.300781 68.867188 49.585938 68.832031 49.757812 68.691406 C 49.753906 68.671875 49.746094 68.652344 49.738281 68.636719 C 49.75 68.652344 49.761719 68.664062 49.773438 68.679688 C 49.777344 68.675781 49.78125 68.671875 49.785156 68.667969 C 49.757812 68.511719 49.796875 68.324219 49.71875 68.21875 C 49.488281 67.914062 49.117188 67.71875 48.929688 67.28125 C 49.667969 67.507812 50.175781 67.917969 50.328125 68.390625 C 50.355469 68.488281 50.324219 68.660156 50.253906 68.71875 Z M 48.75 63.835938 C 48.648438 63.558594 48.566406 63.371094 48.507812 63.175781 C 48.441406 62.9375 48.394531 62.691406 48.332031 62.449219 C 48.21875 62.007812 48.179688 61.527344 47.964844 61.136719 C 47.582031 60.433594 47.550781 59.742188 47.785156 59.011719 C 47.78125 59.003906 47.773438 59 47.769531 58.992188 C 47.773438 58.984375 47.78125 58.972656 47.785156 58.964844 C 47.402344 58.488281 47.328125 57.957031 47.546875 57.394531 C 47.582031 57.308594 47.722656 57.261719 47.9375 57.113281 C 47.886719 57.46875 47.828125 57.707031 47.832031 57.945312 C 47.832031 58.1875 47.914062 58.425781 47.917969 58.667969 C 47.921875 58.765625 47.839844 58.863281 47.785156 58.964844 C 47.789062 58.96875 47.792969 58.972656 47.796875 58.976562 C 47.792969 58.988281 47.789062 59 47.785156 59.011719 C 48.039062 59.316406 48.296875 59.617188 48.589844 59.960938 C 48.511719 60.1875 48.4375 60.414062 48.335938 60.710938 C 48.941406 61.601562 49.1875 62.609375 48.75 63.835938 Z M 49.039062 60.324219 C 49.113281 60.273438 49.421875 60.386719 49.445312 60.472656 C 49.53125 60.804688 49.214844 60.828125 49.066406 60.996094 C 48.785156 60.714844 48.808594 60.480469 49.039062 60.324219 Z M 50.886719 62.308594 C 50.925781 62.320312 50.960938 62.332031 51 62.34375 C 50.988281 62.378906 50.976562 62.414062 50.964844 62.445312 C 50.910156 62.421875 50.851562 62.398438 50.796875 62.371094 C 50.824219 62.351562 50.855469 62.328125 50.886719 62.308594 Z M 53.804688 47.1875 C 53.71875 46.941406 53.820312 46.644531 53.960938 46.695312 C 54.105469 46.746094 54.289062 46.835938 54.34375 46.957031 C 54.550781 47.414062 54.628906 47.886719 54.296875 48.484375 C 54.105469 47.976562 53.949219 47.582031 53.804688 47.1875 Z M 55.769531 45.679688 C 55.792969 45.472656 55.984375 45.429688 56.496094 45.476562 C 57.03125 46.789062 56.976562 46.976562 55.832031 47.496094 C 55.671875 46.882812 55.691406 46.28125 55.769531 45.679688 Z M 54.484375 35.101562 C 53.910156 35.066406 53.304688 35.269531 52.796875 34.78125 C 52.859375 34.398438 53.0625 34.175781 53.441406 34.140625 C 53.5625 34.128906 53.683594 34.15625 53.804688 34.164062 C 53.738281 34.683594 54.546875 34.507812 54.484375 35.101562 Z M 54.351562 22.363281 C 54.304688 22.441406 54.152344 22.460938 53.976562 22.542969 C 53.730469 21.660156 54.039062 20.871094 54.109375 20.039062 C 54.070312 19.953125 54.039062 19.824219 53.960938 19.738281 C 53.1875 18.871094 53.175781 18.859375 53.898438 17.847656 C 53.945312 17.78125 54.015625 17.738281 54.144531 17.621094 C 54.246094 17.792969 54.375 17.9375 54.425781 18.109375 C 54.566406 18.578125 54.675781 19.0625 54.796875 19.539062 C 55.054688 20.542969 54.882812 21.484375 54.351562 22.363281 Z M 55.289062 17.894531 C 55.546875 17.769531 55.769531 17.835938 55.980469 17.996094 C 56.394531 18.3125 56.589844 18.773438 56.683594 19.253906 C 56.714844 19.402344 56.566406 19.664062 56.425781 19.75 C 56.144531 19.925781 55.8125 19.957031 55.527344 19.757812 C 55.328125 19.40625 55.765625 19.355469 55.785156 19.101562 C 55.585938 19.082031 55.386719 19.066406 55.132812 19.046875 C 55.082031 18.875 55.015625 18.683594 54.976562 18.492188 C 54.921875 18.21875 55.03125 18.019531 55.289062 17.894531 Z M 56.035156 20.546875 C 55.96875 20.566406 55.902344 20.582031 55.835938 20.601562 C 55.851562 20.539062 55.851562 20.4375 55.882812 20.425781 C 55.941406 20.40625 56.019531 20.4375 56.089844 20.445312 C 56.070312 20.480469 56.050781 20.511719 56.035156 20.546875 Z M 55.84375 29.234375 C 55.71875 29.222656 55.667969 29.234375 55.636719 29.214844 C 55.207031 28.9375 55.066406 28.730469 55.179688 28.464844 C 55.214844 28.386719 55.382812 28.304688 55.472656 28.320312 C 55.871094 28.394531 55.914062 28.519531 55.84375 29.234375 Z M 58.921875 16.195312 C 58.992188 16.132812 59.171875 16.121094 59.253906 16.167969 C 59.34375 16.21875 59.441406 16.386719 59.417969 16.46875 C 59.285156 16.945312 59.152344 17.429688 58.949219 17.878906 C 58.789062 18.246094 58.484375 18.453125 57.886719 18.210938 C 58.25 17.488281 58.300781 16.703125 58.921875 16.195312 Z M 56.21875 22.828125 C 56.351562 22.792969 56.507812 22.851562 56.707031 22.875 C 56.597656 23.042969 56.554688 23.167969 56.46875 23.238281 C 56.339844 23.335938 56.164062 23.394531 56.054688 23.203125 C 55.960938 23.03125 56.054688 22.875 56.21875 22.828125 Z M 59.089844 29.632812 C 59.125 29.695312 59.167969 29.753906 59.195312 29.820312 C 59.199219 29.835938 59.136719 29.875 59.105469 29.90625 C 59.066406 29.835938 59.023438 29.773438 58.988281 29.703125 C 58.984375 29.695312 59.054688 29.65625 59.089844 29.632812 Z M 51.675781 61.203125 C 51.734375 61.210938 51.785156 61.285156 51.933594 61.40625 C 51.820312 61.46875 51.726562 61.542969 51.617188 61.578125 C 51.574219 61.59375 51.472656 61.546875 51.449219 61.503906 C 51.375 61.34375 51.5 61.175781 51.675781 61.203125 Z M 66.160156 95.40625 C 66.199219 95.40625 66.242188 95.410156 66.28125 95.410156 C 66.296875 95.523438 66.332031 95.640625 66.324219 95.75 C 66.320312 95.804688 66.234375 95.851562 66.1875 95.898438 C 66.160156 95.867188 66.113281 95.832031 66.113281 95.800781 C 66.121094 95.667969 66.140625 95.539062 66.160156 95.40625 Z M 83.1875 117.3125 C 82.882812 117.007812 82.511719 116.792969 81.972656 116.804688 C 81.652344 116.8125 81.769531 116.460938 81.847656 116.242188 C 80.613281 116.015625 80.625 116.003906 79.660156 114.984375 C 79.082031 114.382812 78.46875 113.8125 77.722656 113.410156 C 77.667969 113.378906 77.636719 113.296875 77.574219 113.21875 C 77.769531 113.050781 77.96875 112.882812 78.195312 112.683594 C 77.527344 112.453125 77.527344 112.453125 76.976562 113.316406 C 76.355469 113.433594 76.007812 112.886719 75.503906 112.726562 C 74.785156 112.492188 74.597656 111.929688 74.539062 111.28125 C 74.523438 111.125 74.648438 110.953125 74.625 110.800781 C 74.589844 110.570312 74.421875 110.472656 74.1875 110.566406 C 74.144531 110.730469 74.105469 110.886719 74.0625 111.066406 C 73.773438 111.085938 73.484375 111.195312 73.285156 111.105469 C 72.375 110.699219 71.375 110.460938 70.632812 109.722656 C 70.351562 109.4375 70.113281 109.132812 70.121094 108.753906 C 70.140625 107.992188 69.707031 107.539062 69.160156 107.136719 C 69.140625 107.140625 69.121094 107.144531 69.101562 107.144531 C 69.019531 107.203125 68.9375 107.257812 68.851562 107.3125 C 68.824219 107.328125 68.78125 107.320312 68.746094 107.324219 C 68.769531 107.273438 68.78125 107.195312 68.816406 107.183594 C 68.90625 107.160156 69.003906 107.152344 69.101562 107.144531 C 69.113281 107.136719 69.125 107.128906 69.140625 107.117188 C 69.144531 107.125 69.152344 107.128906 69.160156 107.136719 C 68.820312 106.472656 68.359375 105.835938 68.171875 105.128906 C 67.996094 104.476562 67.828125 103.859375 67.34375 103.355469 C 67.527344 103.050781 67.660156 102.792969 67.832031 102.558594 C 68.019531 102.304688 68.339844 102.277344 68.601562 102.507812 C 68.769531 102.660156 68.886719 102.875 68.996094 103.019531 C 69.367188 102.917969 69.691406 102.84375 70.003906 102.742188 C 70.15625 102.691406 70.230469 102.3125 70.089844 102.179688 C 69.878906 102.335938 69.660156 102.496094 69.421875 102.675781 C 69.179688 102.445312 68.976562 102.25 68.765625 102.050781 C 68.882812 101.648438 68.984375 101.300781 69.09375 100.9375 C 68.941406 100.890625 68.789062 100.84375 68.566406 100.773438 C 68.644531 100.46875 68.238281 100.238281 68.414062 99.875 C 68.625 99.816406 68.832031 99.757812 69.070312 99.691406 C 68.988281 99.585938 68.972656 99.535156 68.941406 99.527344 C 68.867188 99.503906 68.773438 99.464844 68.707031 99.488281 C 68.0625 99.714844 67.699219 99.472656 67.4375 98.863281 C 67.320312 98.582031 66.988281 98.386719 66.738281 98.171875 C 66.699219 98.136719 66.539062 98.15625 66.519531 98.191406 C 66.476562 98.289062 66.429688 98.441406 66.472656 98.507812 C 66.566406 98.636719 66.726562 98.714844 66.847656 98.828125 C 66.894531 98.871094 66.902344 98.953125 66.949219 99.0625 C 66.667969 99.097656 66.398438 99.136719 66.121094 99.171875 C 66.054688 98.050781 66.054688 98.050781 66.507812 97.210938 C 66.5 97.210938 66.492188 97.214844 66.484375 97.214844 C 66.484375 97.214844 66.484375 97.214844 66.484375 97.21875 C 66.449219 97.234375 66.414062 97.234375 66.378906 97.230469 C 66.179688 97.257812 65.972656 97.289062 65.714844 97.324219 C 65.953125 96.894531 66.171875 97.195312 66.378906 97.230469 C 66.414062 97.222656 66.449219 97.21875 66.484375 97.214844 C 66.550781 96.851562 66.566406 96.480469 66.683594 96.140625 C 66.839844 95.683594 66.859375 95.226562 66.699219 94.804688 C 66.59375 94.527344 66.296875 94.324219 66.078125 94.082031 C 66.148438 93.773438 66.21875 93.46875 66.292969 93.15625 C 65.65625 93.121094 65.65625 93.121094 65.425781 92.828125 C 65.585938 92.746094 65.882812 92.632812 65.875 92.589844 C 65.792969 92.230469 66.003906 92.0625 66.234375 91.863281 C 66.394531 91.722656 66.710938 91.660156 66.597656 91.273438 C 66.398438 91.335938 66.207031 91.394531 66.015625 91.457031 L 66.015625 91.460938 C 65.773438 91.734375 65.527344 92.007812 65.308594 92.253906 C 64.121094 91.648438 63.566406 90.535156 62.800781 89.617188 C 62.746094 89.550781 62.796875 89.398438 62.796875 89.257812 C 63.164062 89.34375 63.199219 89.894531 63.671875 89.710938 C 63.648438 89.527344 63.550781 89.300781 63.617188 89.152344 C 63.710938 88.949219 63.792969 88.773438 63.652344 88.589844 C 63.53125 88.433594 63.835938 88.179688 63.53125 88.085938 C 63.132812 88.1875 63.453125 88.542969 63.277344 88.714844 C 62.96875 88.804688 62.660156 88.898438 62.339844 88.988281 C 62.007812 88.875 61.808594 88.417969 61.355469 88.578125 C 60.84375 88.273438 60.261719 88.289062 59.699219 88.1875 C 59.214844 88.097656 58.683594 88.066406 58.375 87.746094 C 58.03125 87.203125 58.484375 86.957031 58.75 86.589844 C 58.511719 86.589844 58.371094 86.546875 58.277344 86.59375 C 57.910156 86.785156 57.5625 87.007812 57.199219 87.203125 C 56.761719 87.441406 56.488281 87.316406 56.390625 86.828125 C 56.351562 86.644531 56.40625 86.425781 56.203125 86.3125 C 56.167969 86.542969 56.132812 86.777344 56.097656 87.019531 C 55.585938 87.308594 55.121094 86.980469 54.585938 87.015625 C 54.460938 86.160156 53.894531 85.6875 53.222656 85.3125 C 52.832031 85.097656 52.714844 84.789062 52.847656 84.375 C 52.949219 84.058594 53.011719 83.730469 53.140625 83.425781 C 53.335938 82.949219 53.75 82.757812 54.242188 82.761719 C 54.457031 82.761719 54.722656 82.921875 54.640625 83.136719 C 54.4375 83.65625 54.839844 84.058594 54.792969 84.519531 C 55.011719 84.519531 55.207031 84.519531 55.398438 84.519531 C 55.238281 84.15625 55.03125 83.804688 54.941406 83.425781 C 54.855469 83.070312 54.777344 82.613281 54.933594 82.332031 C 55.242188 81.789062 55.367188 81.175781 55.679688 80.648438 C 55.804688 80.4375 55.976562 80.238281 56.171875 80.09375 C 56.269531 80.019531 56.46875 80.078125 56.640625 80.078125 C 56.660156 79.914062 56.675781 79.707031 56.714844 79.507812 C 56.753906 79.320312 56.824219 79.144531 56.882812 78.964844 L 56.914062 78.992188 C 56.519531 78.242188 56.632812 77.871094 57.335938 77.75 C 57.660156 77.691406 58.003906 77.714844 58.261719 77.3125 C 58.023438 77.304688 57.820312 77.246094 57.652344 77.300781 C 57.429688 77.375 57.175781 77.648438 57.007812 77.371094 C 56.78125 76.984375 57.335938 77.042969 57.4375 76.8125 C 56.660156 76.714844 56.660156 76.703125 56.488281 76 C 56.25 76.167969 56.039062 76.3125 55.835938 76.453125 C 55.4375 76.128906 55.941406 75.9375 55.898438 75.679688 C 55.730469 75.390625 55.601562 75.078125 55.390625 74.824219 C 54.992188 74.34375 54.839844 73.820312 54.941406 73.207031 C 54.996094 72.867188 54.910156 72.554688 54.683594 72.277344 C 54.484375 72.03125 54.324219 71.753906 54.152344 71.492188 C 54.136719 71.507812 54.125 71.519531 54.113281 71.535156 C 54.097656 71.613281 54.082031 71.691406 54.066406 71.769531 C 54.035156 71.746094 54.003906 71.722656 53.972656 71.703125 C 54.019531 71.648438 54.066406 71.589844 54.113281 71.535156 C 54.117188 71.507812 54.125 71.484375 54.128906 71.457031 C 54.136719 71.46875 54.144531 71.480469 54.152344 71.492188 C 54.152344 71.488281 54.15625 71.484375 54.15625 71.484375 C 54.160156 71.242188 54.121094 70.992188 54.171875 70.761719 C 54.226562 70.515625 54.371094 70.292969 54.476562 70.050781 C 53.988281 69.921875 53.558594 69.808594 53.132812 69.695312 C 53.140625 69.707031 53.148438 69.71875 53.15625 69.730469 C 53.15625 69.730469 53.152344 69.730469 53.148438 69.730469 C 53.269531 69.863281 53.375 70.027344 53.523438 70.101562 C 54.011719 70.351562 53.984375 70.714844 53.808594 71.191406 C 53.277344 70.824219 52.542969 70.796875 52.28125 70.101562 C 52.476562 69.714844 52.84375 69.800781 53.148438 69.730469 C 53.136719 69.714844 53.125 69.703125 53.113281 69.691406 C 53.121094 69.691406 53.125 69.695312 53.132812 69.695312 C 52.671875 69.085938 51.898438 69.089844 51.238281 68.773438 C 51.082031 68.425781 50.832031 68.089844 50.929688 67.625 C 50.957031 67.503906 50.867188 67.285156 50.757812 67.214844 C 50.253906 66.886719 50.203125 66.296875 49.90625 65.851562 C 49.636719 65.4375 49.738281 64.957031 49.765625 64.539062 C 49.792969 64.109375 50.128906 63.722656 50.53125 63.441406 C 50.914062 63.167969 51.304688 62.957031 51.78125 62.902344 C 51.890625 62.890625 52.089844 62.75 51.945312 62.546875 C 51.746094 62.535156 51.542969 62.820312 51.398438 62.554688 C 51.351562 62.464844 51.460938 62.230469 51.570312 62.144531 C 51.75 61.996094 51.984375 61.914062 52.1875 61.8125 C 52.597656 62.324219 52.8125 62.84375 52.890625 63.414062 C 53.078125 63.425781 53.269531 63.4375 53.507812 63.449219 C 53.238281 62.882812 52.875 62.394531 52.789062 61.863281 C 52.703125 61.289062 52.414062 60.792969 52.40625 60.304688 C 51.816406 60.097656 52.308594 60.851562 51.8125 60.746094 C 51.707031 60.453125 51.550781 60.152344 51.507812 59.835938 C 51.484375 59.664062 51.628906 59.449219 51.746094 59.289062 C 51.792969 59.226562 51.953125 59.25 52.074219 59.246094 C 52.101562 59.167969 52.128906 59.089844 52.160156 59.011719 C 51.894531 58.761719 51.496094 58.542969 51.429688 58.253906 C 51.300781 57.675781 50.917969 57.167969 51.015625 56.503906 C 51.082031 56.054688 51.09375 55.628906 51.351562 55.226562 C 51.503906 54.996094 51.605469 54.703125 51.628906 54.425781 C 51.722656 53.34375 52.332031 52.625 53.207031 52.066406 L 53.183594 52.101562 C 53.265625 52.019531 53.335938 51.875 53.429688 51.863281 C 53.691406 51.820312 53.914062 51.820312 53.859375 51.441406 C 53.84375 51.335938 54.011719 51.132812 54.136719 51.085938 C 54.523438 50.949219 54.777344 50.703125 54.933594 50.34375 C 55.136719 49.878906 55.601562 49.753906 55.921875 49.644531 C 55.984375 49.25 56.019531 48.972656 56.070312 48.695312 C 56.128906 48.414062 56.203125 48.136719 56.277344 47.816406 C 57.234375 47.554688 57.519531 46.894531 57.355469 45.988281 C 57.347656 45.949219 57.339844 45.90625 57.339844 45.867188 C 57.359375 45.523438 57.417969 45.195312 57.753906 45.007812 C 58.207031 44.757812 58.296875 44.328125 58.121094 43.933594 C 57.816406 43.25 57.855469 42.570312 57.921875 41.867188 C 57.941406 41.660156 57.941406 41.449219 57.914062 41.246094 C 57.84375 40.765625 57.628906 40.339844 57.953125 39.816406 C 58.136719 39.515625 57.953125 39.03125 57.730469 38.644531 C 57.316406 37.929688 56.949219 37.1875 56.609375 36.433594 C 56.539062 36.28125 56.6875 36.03125 56.746094 35.757812 C 55.757812 35.5625 55.347656 34.71875 54.675781 34.253906 C 54.734375 33.851562 54.785156 33.53125 54.839844 33.160156 C 55.296875 32.855469 55.785156 32.53125 56.261719 32.203125 C 56.765625 31.855469 56.949219 31.292969 57.144531 30.761719 C 57.726562 30.640625 58.277344 30.679688 58.773438 30.386719 C 58.972656 30.269531 59.328125 30.414062 59.613281 30.4375 C 59.613281 30.203125 59.621094 29.925781 59.609375 29.652344 C 59.601562 29.390625 59.527344 29.140625 59.222656 29.101562 C 58.953125 29.066406 58.90625 29.316406 58.824219 29.5 C 58.789062 29.574219 58.75 29.65625 58.691406 29.710938 C 58.4375 29.957031 57.628906 29.730469 57.53125 29.34375 C 57.71875 29.078125 57.929688 28.78125 58.171875 28.441406 C 58.636719 28.726562 59.023438 28.609375 59.34375 28.226562 C 59.339844 28.222656 59.335938 28.222656 59.332031 28.21875 C 58.851562 28.519531 58.527344 28.0625 58.0625 27.976562 C 58.027344 27.644531 57.996094 27.335938 57.957031 26.996094 C 58.289062 26.914062 58.558594 26.847656 58.847656 26.777344 C 58.898438 26.898438 58.972656 27.003906 58.984375 27.113281 C 59.027344 27.507812 58.929688 27.941406 59.332031 28.21875 C 59.34375 28.210938 59.355469 28.203125 59.367188 28.195312 C 59.359375 28.207031 59.351562 28.214844 59.34375 28.226562 C 59.597656 28.5 59.808594 28.5625 59.878906 28.375 C 60.042969 27.949219 59.742188 27.550781 59.800781 27.128906 C 59.023438 26.816406 59.066406 26.105469 59.015625 25.46875 C 58.980469 25.03125 58.882812 24.664062 58.511719 24.402344 L 58.496094 24.433594 C 58.394531 24.269531 58.246094 24.117188 58.203125 23.9375 C 58.082031 23.425781 58.019531 22.902344 57.890625 22.390625 C 57.867188 22.292969 57.675781 22.238281 57.546875 22.167969 C 57.550781 22.171875 57.550781 22.179688 57.554688 22.183594 C 57.542969 22.175781 57.535156 22.167969 57.523438 22.160156 C 57.550781 22.429688 57.578125 22.699219 57.605469 22.972656 C 57.410156 23.160156 57.179688 23.082031 57.070312 22.925781 C 56.875 22.644531 56.742188 22.375 56.3125 22.535156 C 56.25 22.558594 56.015625 22.359375 56 22.242188 C 55.953125 21.925781 55.980469 21.597656 55.980469 21.175781 C 56.230469 21.273438 56.425781 21.3125 56.578125 21.417969 C 56.902344 21.648438 57.210938 21.90625 57.523438 22.160156 C 57.523438 22.15625 57.523438 22.15625 57.523438 22.152344 C 57.53125 22.15625 57.539062 22.164062 57.546875 22.167969 C 57.320312 21.542969 57.109375 20.914062 57.503906 20.277344 C 57.6875 19.972656 57.457031 19.722656 57.425781 19.445312 C 57.371094 18.941406 57.546875 18.714844 58.097656 18.59375 C 58.246094 18.5625 58.410156 18.613281 58.570312 18.628906 C 58.730469 19.164062 58.8125 19.632812 58.519531 20.109375 C 58.460938 20.199219 58.53125 20.371094 58.554688 20.601562 C 59.171875 20.019531 58.808594 19.308594 59.058594 18.753906 C 59.335938 18.152344 59.605469 17.546875 59.875 16.945312 C 59.554688 16.289062 60.398438 15.820312 60.171875 15.179688 C 59.960938 15.339844 59.691406 15.675781 59.550781 15.628906 C 59.054688 15.460938 59.628906 15.058594 59.453125 14.78125 L 59.488281 14.816406 C 59.132812 14.421875 58.78125 14.027344 58.394531 13.597656 C 58.492188 13.296875 58.671875 12.996094 58.664062 12.699219 C 58.652344 12.449219 58.421875 12.207031 58.289062 11.960938 C 58.441406 11.734375 58.652344 11.757812 58.800781 11.914062 C 59.054688 12.171875 59.265625 12.476562 59.496094 12.753906 C 59.691406 12.992188 59.628906 13.390625 59.984375 13.527344 C 60.0625 12.96875 59.957031 12.429688 59.546875 12.0625 C 59 11.570312 58.324219 11.257812 57.550781 11.152344 C 57.476562 10.5 57.058594 9.976562 57.15625 9.3125 C 57.179688 9.144531 57.03125 8.921875 56.910156 8.765625 C 56.375 8.070312 55.832031 7.390625 56.132812 6.421875 C 56.164062 6.316406 56.113281 6.160156 56.046875 6.0625 C 55.75 5.628906 55.699219 5.144531 55.6875 4.632812 C 55.675781 4.082031 55.472656 3.5 55.070312 3.183594 C 54.527344 2.761719 53.84375 2.496094 53.191406 2.242188 C 52.378906 1.925781 51.667969 1.550781 51.480469 0.601562 C 51.464844 0.515625 51.320312 0.453125 51.214844 0.363281 C 51.09375 0.898438 51.09375 0.898438 51.238281 1.585938 C 51.660156 1.890625 52.085938 2.238281 52.554688 2.515625 C 53.046875 2.804688 53.175781 3.28125 53.308594 3.757812 C 53.351562 3.914062 53.300781 4.09375 53.324219 4.257812 C 53.378906 4.707031 53.476562 5.097656 53.828125 5.476562 C 54.601562 6.316406 54.898438 7.445312 55.410156 8.445312 C 55.382812 9.066406 55.75 9.519531 56.027344 10.03125 C 56.347656 10.625 56.828125 11.210938 56.507812 12.007812 C 56.421875 12.226562 56.601562 12.566406 56.710938 12.832031 C 56.910156 13.304688 57.050781 13.773438 56.90625 14.289062 C 56.703125 15.019531 56.871094 15.679688 57.277344 16.3125 C 57.445312 16.578125 57.503906 16.914062 57.636719 17.277344 C 57.261719 17.558594 56.941406 17.800781 56.664062 18.007812 C 56.089844 17.785156 55.851562 17.367188 55.597656 16.980469 C 55.300781 17.164062 55.035156 17.335938 54.75 17.511719 C 54.429688 17.167969 54.15625 16.878906 53.738281 16.433594 C 53.738281 16.878906 53.785156 17.117188 53.722656 17.328125 C 53.65625 17.554688 53.453125 17.746094 53.371094 17.972656 C 53.261719 18.285156 53.203125 18.613281 53.128906 18.941406 C 53.070312 19.199219 53.121094 19.4375 53.320312 19.628906 C 53.753906 20.054688 53.59375 20.511719 53.480469 21.019531 C 53.320312 21.761719 53.09375 22.542969 53.554688 23.3125 C 53.902344 23.132812 54.214844 22.972656 54.585938 22.78125 C 54.734375 23.230469 54.632812 23.585938 54.613281 23.953125 C 54.59375 24.3125 54.730469 24.679688 54.808594 25.085938 C 54.25 25.625 54.308594 26.453125 53.953125 27.097656 C 53.570312 27.792969 53.605469 28.539062 53.488281 29.265625 C 53.417969 29.726562 53.308594 30.125 53.054688 30.535156 C 52.644531 31.195312 52.28125 31.910156 52.609375 32.746094 C 52.734375 33.070312 52.648438 33.371094 52.496094 33.699219 C 52.097656 34.582031 51.925781 35.492188 52.117188 36.488281 C 52.265625 37.261719 52.246094 38.070312 51.949219 38.839844 C 51.859375 39.066406 51.835938 39.320312 51.820312 39.378906 C 52.058594 39.96875 52.25 40.378906 52.394531 40.808594 C 52.476562 41.050781 52.582031 41.246094 52.832031 41.324219 C 52.832031 41.316406 52.828125 41.304688 52.828125 41.296875 C 52.839844 41.308594 52.851562 41.320312 52.863281 41.332031 C 52.863281 41.332031 52.863281 41.335938 52.867188 41.335938 C 52.902344 40.628906 52.40625 40.109375 52.179688 39.421875 C 52.738281 38.71875 52.554688 37.835938 52.578125 36.988281 C 52.589844 36.5 52.582031 36.007812 52.582031 35.539062 C 53.566406 35.292969 53.566406 35.292969 55.214844 36.050781 C 55.433594 36.449219 55.601562 36.890625 55.886719 37.234375 C 56.261719 37.683594 56.027344 38.417969 56.65625 38.71875 C 56.664062 38.722656 56.652344 38.804688 56.628906 38.828125 C 56.203125 39.25 56.945312 39.296875 56.882812 39.605469 C 56.628906 39.859375 56.378906 40.121094 56.113281 40.367188 C 55.960938 40.503906 55.796875 40.6875 55.613281 40.722656 C 54.75 40.898438 54.160156 41.453125 53.578125 42.136719 C 53.3125 41.839844 53.085938 41.585938 52.863281 41.332031 C 52.851562 41.328125 52.839844 41.328125 52.832031 41.324219 C 52.910156 42.394531 53.542969 43.222656 54.089844 44.066406 C 53.835938 44.921875 53.835938 45.800781 53.429688 46.601562 C 53.28125 46.898438 53.246094 47.429688 53.417969 47.671875 C 53.859375 48.28125 53.859375 48.980469 54.09375 49.65625 C 53.847656 49.808594 53.601562 49.90625 53.4375 50.078125 C 53.273438 50.25 53.230469 50.535156 53.070312 50.710938 C 52.738281 51.070312 52.484375 51.484375 51.957031 51.679688 C 51.554688 51.832031 51.15625 52.179688 50.921875 52.542969 C 50.480469 53.238281 50.148438 54 49.804688 54.746094 C 49.769531 54.824219 49.949219 54.996094 50.035156 55.136719 C 49.402344 56.207031 48.371094 56.726562 47.332031 57.066406 C 46.714844 56.953125 46.183594 56.816406 45.648438 56.769531 C 45.113281 56.722656 44.570312 56.816406 44.070312 56.492188 C 43.9375 56.410156 43.636719 56.476562 43.480469 56.578125 C 43.335938 56.671875 43.207031 56.890625 43.359375 57.109375 C 43.449219 57.097656 43.53125 57.109375 43.601562 57.078125 C 44.703125 56.601562 45.667969 57.167969 46.664062 57.480469 C 46.726562 57.5 46.753906 57.6875 46.769531 57.796875 C 46.78125 57.902344 46.707031 58.03125 46.742188 58.117188 C 47.21875 59.175781 47.277344 59.488281 47.167969 60.53125 C 47.371094 61.015625 47.582031 61.421875 47.703125 61.855469 C 47.90625 62.566406 48.054688 63.296875 48.207031 64.019531 C 48.261719 64.296875 48.367188 64.621094 48.277344 64.859375 C 48.117188 65.273438 48.140625 65.546875 48.46875 65.859375 C 48.609375 65.996094 48.558594 66.261719 48.25 66.289062 C 48.25 66.394531 48.253906 66.5 48.25 66.605469 C 48.25 66.609375 48.203125 66.609375 48.175781 66.609375 C 48.175781 66.511719 48.171875 66.414062 48.171875 66.3125 C 48.015625 66.726562 47.554688 66.679688 47.109375 66.867188 C 47.425781 67.027344 47.59375 67.140625 47.78125 67.195312 C 48.109375 67.285156 48.0625 67.535156 48.082031 67.769531 C 48.261719 67.839844 48.441406 67.914062 48.621094 67.984375 L 48.582031 67.96875 C 48.703125 67.972656 48.828125 67.949219 48.933594 67.984375 C 49.347656 68.113281 49.382812 68.339844 49.046875 68.625 C 48.996094 68.671875 48.929688 68.699219 48.871094 68.734375 C 48.839844 68.933594 48.804688 69.136719 48.773438 69.332031 C 48.957031 69.53125 49.140625 69.730469 49.375 69.984375 C 49.722656 69.527344 50.148438 69.230469 50.8125 69.519531 C 50.957031 70.285156 51.453125 70.882812 52.109375 71.347656 C 52.523438 71.644531 52.640625 72.019531 52.675781 72.511719 C 52.726562 73.179688 52.722656 73.882812 53.15625 74.46875 C 53.257812 74.277344 53.363281 74.078125 53.539062 73.746094 C 53.679688 74.3125 53.820312 74.714844 53.863281 75.125 C 53.882812 75.332031 53.726562 75.558594 53.652344 75.773438 L 53.679688 75.753906 C 53.679688 76.210938 53.648438 76.671875 53.6875 77.125 C 53.722656 77.566406 53.824219 78.003906 53.917969 78.550781 C 53.570312 78.511719 53.332031 78.496094 53.101562 78.453125 C 52.816406 78.402344 52.539062 78.277344 52.253906 78.265625 C 51.902344 78.253906 51.839844 78.472656 51.980469 78.765625 C 52.492188 78.824219 53.03125 78.65625 53.5 78.917969 C 53.5 79.351562 53.5 79.746094 53.5 80.132812 C 53.59375 80.136719 53.636719 80.148438 53.671875 80.136719 C 53.96875 80.035156 53.914062 79.726562 54.039062 79.523438 C 54.175781 79.296875 54.226562 78.976562 54.597656 78.976562 C 54.628906 79.101562 54.691406 79.210938 54.660156 79.25 C 54.296875 79.757812 53.914062 80.25 53.546875 80.753906 C 53.300781 81.089844 52.925781 81.414062 52.867188 81.785156 C 52.746094 82.539062 52.21875 83.117188 52.105469 83.855469 C 52.070312 84.082031 51.929688 84.335938 51.550781 84.335938 C 51.144531 83.4375 50.601562 82.574219 50.460938 81.546875 C 50.457031 81.503906 50.316406 81.476562 50.238281 81.445312 L 50.25 81.464844 C 49.964844 81.25 49.675781 81.035156 49.347656 80.789062 C 49.214844 80.992188 49.089844 81.183594 48.925781 81.433594 C 48.800781 81.3125 48.6875 81.210938 48.589844 81.101562 C 48.488281 80.988281 48.425781 80.828125 48.300781 80.753906 C 47.867188 80.492188 47.507812 80.214844 47.421875 79.652344 C 47.398438 79.488281 47.0625 79.375 46.859375 79.238281 C 46.675781 79.574219 46.75 79.84375 46.992188 80.191406 C 47.269531 80.59375 47.726562 80.707031 48.011719 81.039062 C 48.160156 81.210938 48.023438 81.570312 48.402344 81.625 C 48.691406 81.667969 48.96875 81.78125 49.257812 81.824219 C 49.496094 81.855469 49.746094 81.832031 50.011719 81.832031 C 50.101562 82.191406 50.179688 82.511719 50.265625 82.828125 C 50.308594 82.984375 49.972656 83.066406 50.175781 83.234375 C 50.28125 83.320312 50.421875 83.355469 50.523438 83.40625 C 50.382812 83.542969 50.296875 83.628906 50.183594 83.742188 C 50.851562 84.183594 50.949219 84.777344 50.832031 85.449219 C 50.582031 85.542969 50.363281 85.625 50.148438 85.707031 C 50.347656 86.414062 49.832031 86.761719 49.5625 87.199219 C 48.875 87.351562 48.25 87.152344 47.699219 86.90625 C 47.046875 86.617188 46.410156 86.609375 45.5625 86.613281 C 46.308594 86.847656 46.886719 87.019531 47.464844 87.203125 C 47.691406 87.277344 47.777344 87.429688 47.707031 87.652344 C 47.710938 87.652344 47.71875 87.652344 47.722656 87.65625 C 47.730469 87.65625 47.734375 87.660156 47.738281 87.660156 C 48.207031 87.425781 48.640625 87.441406 49.125 87.902344 C 48.898438 87.984375 48.734375 88.105469 48.625 88.070312 C 48.320312 87.964844 48.035156 87.800781 47.738281 87.660156 C 47.726562 87.671875 47.710938 87.675781 47.695312 87.683594 C 47.699219 87.671875 47.703125 87.664062 47.707031 87.652344 C 47.503906 87.628906 47.332031 87.75 47.441406 87.902344 C 47.640625 88.199219 47.886719 88.484375 48.242188 88.632812 C 48.289062 88.652344 48.285156 88.777344 48.324219 88.933594 C 48.085938 88.996094 47.996094 89.375 47.621094 89.210938 C 47.46875 89.046875 47.808594 88.6875 47.386719 88.628906 C 46.746094 89.441406 46.042969 89.902344 45.101562 90.167969 C 44.265625 90.40625 43.46875 90.285156 42.691406 89.949219 L 42.695312 89.957031 C 42.628906 90.136719 42.5625 90.3125 42.5 90.492188 C 42.640625 90.535156 42.71875 90.59375 42.777344 90.574219 C 43.03125 90.496094 43.242188 90.519531 43.445312 90.71875 C 43.632812 90.90625 43.714844 91.105469 43.667969 91.371094 C 43.625 91.59375 43.601562 91.824219 43.574219 92.050781 C 43.800781 92.070312 44.027344 92.085938 44.253906 92.105469 C 44.195312 91.929688 44.117188 91.753906 44.09375 91.570312 C 44.023438 91.015625 44.339844 90.601562 44.898438 90.550781 C 45.265625 90.511719 45.636719 90.539062 46.007812 90.542969 C 46.207031 90.542969 46.441406 90.625 46.601562 90.550781 C 47 90.371094 47.367188 90.316406 47.796875 90.460938 C 48.109375 90.566406 48.4375 90.503906 48.757812 90.351562 C 49.089844 90.195312 49.457031 90.121094 49.8125 90.011719 C 49.804688 90.003906 49.796875 89.996094 49.792969 89.984375 C 49.804688 89.988281 49.820312 89.988281 49.832031 89.988281 C 49.953125 89.84375 50.074219 89.699219 50.164062 89.59375 C 50.671875 89.652344 51.121094 89.703125 51.570312 89.757812 C 51.578125 89.75 51.585938 89.746094 51.59375 89.738281 C 51.296875 89.5625 50.996094 89.382812 50.699219 89.207031 C 50.699219 89.203125 50.699219 89.203125 50.699219 89.203125 C 50.695312 89.203125 50.691406 89.203125 50.6875 89.207031 C 50.691406 89.199219 50.695312 89.195312 50.695312 89.191406 C 50.675781 89.074219 50.644531 88.960938 50.640625 88.84375 C 50.640625 88.78125 50.671875 88.703125 50.714844 88.65625 C 50.796875 88.570312 50.917969 88.726562 50.871094 88.886719 C 50.835938 88.996094 50.757812 89.089844 50.695312 89.191406 C 50.695312 89.195312 50.699219 89.199219 50.699219 89.203125 C 51.136719 89.03125 51.554688 89.019531 51.910156 89.378906 C 51.976562 89.445312 52.027344 89.597656 51.992188 89.675781 C 51.914062 89.875 51.746094 89.808594 51.597656 89.738281 C 51.597656 89.738281 51.59375 89.738281 51.59375 89.738281 C 51.605469 89.746094 51.621094 89.753906 51.632812 89.761719 C 51.613281 89.761719 51.589844 89.757812 51.570312 89.757812 C 51.414062 89.863281 51.265625 90.03125 51.105469 90.039062 C 50.683594 90.0625 50.257812 90.015625 49.832031 89.988281 C 49.828125 89.996094 49.824219 90.003906 49.816406 90.011719 C 49.8125 90.011719 49.8125 90.011719 49.8125 90.011719 C 50.226562 90.542969 50.960938 90.328125 51.425781 90.6875 C 51.609375 90.503906 51.773438 90.339844 51.957031 90.160156 C 52.28125 90.390625 52.546875 90.578125 52.628906 90.632812 C 53.121094 90.632812 53.429688 90.5625 53.679688 90.652344 C 54.0625 90.785156 54.507812 90.953125 54.742188 91.25 C 55.0625 91.65625 55.660156 91.496094 55.882812 91.910156 C 56.027344 92.179688 56.230469 92.289062 56.46875 92.269531 C 57.210938 92.214844 57.839844 92.589844 58.523438 92.734375 C 59.25 92.886719 59.738281 93.304688 60.117188 93.855469 C 60.5625 94.507812 60.921875 95.214844 61.320312 95.898438 C 62.191406 96.367188 61.878906 97.300781 62.167969 97.996094 C 62.175781 98.019531 62.203125 98.035156 62.230469 98.050781 C 62.230469 98.042969 62.226562 98.039062 62.226562 98.03125 C 62.238281 98.039062 62.253906 98.046875 62.265625 98.054688 C 62.28125 97.832031 62.292969 97.609375 62.3125 97.324219 C 62.914062 97.550781 63.070312 97.976562 63.34375 98.671875 C 62.84375 98.382812 62.550781 98.21875 62.265625 98.054688 C 62.265625 98.0625 62.265625 98.066406 62.265625 98.074219 C 62.257812 98.066406 62.242188 98.058594 62.230469 98.050781 C 62.277344 98.203125 62.285156 98.398438 62.386719 98.488281 C 62.941406 98.96875 63.125 99.566406 63.054688 100.273438 C 63.011719 100.6875 63.234375 100.984375 63.582031 101.195312 C 63.796875 101.324219 64.015625 101.445312 64.230469 101.574219 C 64.761719 101.902344 64.808594 101.96875 64.664062 102.582031 C 64.457031 103.480469 64.289062 104.347656 64.890625 105.195312 C 65.113281 105.507812 64.761719 105.800781 64.277344 105.742188 C 64.175781 105.730469 64.066406 105.769531 63.972656 105.785156 C 63.886719 106.238281 64.203125 106.332031 64.46875 106.425781 C 64.828125 106.550781 64.621094 106.832031 64.707031 107.132812 C 65.125 106.675781 65.769531 107.054688 66.207031 106.632812 C 66.226562 106.613281 66.445312 106.722656 66.484375 106.8125 C 66.519531 106.886719 66.464844 107.0625 66.390625 107.117188 C 66.265625 107.210938 66.097656 107.269531 65.945312 107.296875 C 65.664062 107.339844 65.375 107.34375 65.097656 107.367188 C 64.96875 107.636719 64.859375 107.859375 64.75 108.078125 C 65.292969 108.300781 65.292969 108.300781 65.421875 109.035156 C 65.617188 109.0625 65.8125 109.085938 66.054688 109.121094 C 66.167969 109.609375 66.253906 110.050781 66.375 110.484375 C 66.414062 110.621094 66.546875 110.734375 66.632812 110.855469 C 66.695312 110.863281 66.757812 110.867188 66.816406 110.875 C 66.910156 111.050781 67.066406 111.226562 67.074219 111.414062 C 67.101562 111.871094 67.257812 112.234375 67.5 112.644531 C 67.816406 113.167969 68.257812 113.734375 68.082031 114.464844 C 67.882812 114.535156 67.695312 114.59375 67.515625 114.664062 C 67.488281 114.675781 67.476562 114.730469 67.472656 114.738281 C 67.707031 114.953125 67.914062 115.191406 68.167969 115.363281 C 68.46875 115.566406 68.8125 115.714844 69.136719 115.890625 C 69.136719 115.890625 69.101562 115.859375 69.101562 115.859375 C 70.160156 115.398438 70.183594 115.386719 71.085938 115.605469 C 70.996094 115.453125 70.90625 115.300781 70.820312 115.148438 C 70.378906 115 70.785156 114.378906 70.203125 114.289062 C 70.527344 114.09375 70.738281 113.949219 70.964844 113.839844 C 71.582031 113.535156 71.976562 113.621094 72.375 114.175781 C 72.519531 114.375 72.597656 114.621094 72.691406 114.847656 C 72.816406 115.140625 72.925781 115.4375 73.070312 115.800781 C 72.625 116 72.152344 115.863281 71.699219 115.902344 C 72.320312 116.222656 72.742188 116.730469 73.03125 117.351562 C 73.066406 117.425781 72.980469 117.554688 72.949219 117.660156 C 72.851562 117.605469 72.757812 117.550781 72.65625 117.5 C 72.59375 117.46875 72.523438 117.445312 72.390625 117.394531 C 72.453125 117.976562 72.511719 118.527344 72.566406 119.046875 C 72.253906 119.324219 71.96875 119.578125 71.65625 119.851562 C 71.585938 119.601562 71.589844 119.378906 71.484375 119.308594 C 71.335938 119.199219 71.097656 119.140625 70.914062 119.171875 C 70.613281 119.226562 70.324219 119.363281 69.96875 119.488281 C 70.226562 119.613281 70.402344 119.695312 70.710938 119.847656 C 69.917969 120.058594 69.273438 119.695312 68.679688 120.023438 C 68.535156 119.542969 69.203125 119.410156 68.972656 118.90625 C 68.699219 119.042969 68.429688 119.179688 67.914062 119.441406 C 68.304688 118.867188 68.535156 118.53125 68.800781 118.140625 C 68.691406 117.855469 68.5625 117.53125 68.425781 117.183594 C 67.742188 117.550781 68.425781 117.917969 68.320312 118.328125 C 68.113281 118.4375 67.863281 118.566406 67.648438 118.675781 C 67.648438 119.003906 67.527344 119.398438 67.671875 119.613281 C 68.109375 120.261719 68.648438 120.839844 69.183594 121.484375 C 69.644531 121.035156 70.042969 120.652344 70.449219 120.257812 C 70.628906 120.332031 70.8125 120.410156 70.9375 120.464844 C 70.9375 120.914062 70.945312 121.285156 70.933594 121.65625 C 70.921875 122.042969 70.894531 122.429688 70.871094 122.839844 C 71.550781 122.613281 71.550781 122.613281 72.117188 122.960938 C 72.140625 122.886719 72.160156 122.808594 72.191406 122.734375 C 72.234375 122.640625 72.289062 122.550781 72.335938 122.457031 C 72.421875 122.527344 72.578125 122.597656 72.582031 122.675781 C 72.59375 122.917969 72.554688 123.167969 72.523438 123.410156 C 72.398438 124.398438 72.269531 125.386719 72.144531 126.371094 L 72.121094 126.339844 C 72.308594 126.96875 72.492188 127.601562 72.675781 128.222656 C 72.53125 128.394531 72.425781 128.515625 72.320312 128.644531 C 71.832031 129.234375 71.253906 129.761719 71.4375 130.667969 C 71.484375 130.898438 71.296875 131.230469 71.117188 131.433594 C 70.757812 131.835938 70.660156 132.292969 70.617188 132.804688 C 70.570312 133.339844 70.488281 133.875 70.347656 134.390625 C 70.285156 134.625 70.0625 134.820312 69.796875 134.488281 C 69.753906 134.433594 69.550781 134.429688 69.476562 134.484375 C 69.292969 134.617188 69.390625 134.785156 69.519531 134.894531 C 69.71875 135.054688 69.617188 135.15625 69.476562 135.261719 C 69.488281 135.375 69.507812 135.484375 69.507812 135.597656 C 69.507812 135.703125 69.488281 135.808594 69.480469 135.914062 C 69.191406 135.871094 69.351562 135.730469 69.402344 135.597656 C 69.441406 135.492188 69.445312 135.371094 69.464844 135.261719 C 69.03125 135.507812 68.597656 135.746094 68.074219 135.792969 C 67.789062 135.820312 67.5 135.914062 67.230469 136.023438 C 67.101562 136.078125 66.945312 136.203125 67.09375 136.441406 C 67.308594 136.414062 67.542969 136.386719 67.769531 136.359375 C 68.03125 136.820312 67.339844 136.765625 67.367188 137.109375 C 67.648438 137.207031 67.917969 137.304688 68.179688 137.394531 C 68.34375 137.09375 68.488281 136.820312 68.65625 136.507812 C 69.121094 137.191406 69.121094 137.195312 68.792969 137.863281 C 69.082031 138.058594 69.324219 138.011719 69.457031 137.671875 C 69.628906 137.242188 69.511719 136.726562 69.832031 136.261719 C 70.210938 136.570312 70.421875 136.886719 70.480469 137.320312 C 70.539062 137.726562 70.648438 138.128906 70.734375 138.53125 C 70.730469 138.582031 70.726562 138.632812 70.722656 138.683594 C 70.726562 138.707031 70.726562 138.730469 70.730469 138.753906 C 70.734375 138.792969 70.757812 138.832031 70.773438 138.871094 C 70.757812 138.832031 70.726562 138.796875 70.726562 138.761719 C 70.722656 138.734375 70.722656 138.707031 70.722656 138.683594 C 70.722656 138.632812 70.722656 138.578125 70.71875 138.527344 C 70.332031 138.984375 70.066406 138.503906 69.699219 138.382812 C 69.507812 138.511719 69.292969 138.660156 69.023438 138.847656 C 69.207031 138.902344 69.292969 138.960938 69.355469 138.941406 C 69.820312 138.78125 70.136719 138.875 70.386719 139.339844 C 70.640625 139.808594 70.996094 140.21875 71.34375 140.703125 C 71.144531 141.375 71.03125 142.101562 71.183594 142.851562 C 71.195312 142.921875 71.152344 143.019531 71.101562 143.078125 C 71.054688 143.132812 70.964844 143.179688 70.898438 143.175781 C 70.828125 143.171875 70.710938 143.109375 70.703125 143.0625 C 70.671875 142.734375 70.679688 142.40625 70.644531 142.082031 C 70.628906 141.898438 70.511719 141.785156 70.214844 141.859375 C 70.445312 142.273438 70.269531 142.597656 69.984375 142.925781 C 69.746094 143.195312 69.5 143.507812 69.683594 143.921875 C 69.742188 143.914062 69.800781 143.925781 69.820312 143.902344 C 69.984375 143.730469 70.140625 143.550781 70.367188 143.300781 C 70.460938 143.566406 70.625 143.792969 70.597656 143.992188 C 70.535156 144.453125 70.921875 144.511719 71.144531 144.71875 C 71.144531 144.71875 71.148438 144.722656 71.148438 144.722656 C 71.15625 144.714844 71.164062 144.707031 71.171875 144.695312 C 71.171875 144.71875 71.171875 144.738281 71.171875 144.757812 C 71.226562 144.832031 71.285156 144.902344 71.3125 144.988281 C 71.328125 145.039062 71.269531 145.117188 71.171875 145.371094 C 71.171875 145.0625 71.171875 144.902344 71.171875 144.757812 C 71.164062 144.746094 71.15625 144.734375 71.148438 144.722656 C 70.710938 145.160156 70.984375 145.605469 71.136719 146.054688 C 71.386719 146.058594 71.667969 145.960938 71.753906 146.285156 C 71.835938 146.597656 71.890625 146.917969 71.960938 147.25 C 71.757812 147.320312 71.613281 147.367188 71.40625 147.4375 C 71.457031 147.613281 71.507812 147.792969 71.558594 147.972656 C 72.039062 147.828125 71.96875 148.210938 71.851562 148.371094 C 71.546875 148.796875 71.449219 149.265625 71.378906 149.757812 C 72.308594 149.757812 73.234375 149.757812 74.164062 149.757812 C 74.550781 149.488281 75.003906 149.542969 75.4375 149.527344 C 75.515625 149.523438 75.601562 149.675781 75.683594 149.757812 C 75.9375 149.757812 76.1875 149.757812 76.441406 149.757812 C 76.421875 149.554688 76.402344 149.351562 76.378906 149.078125 C 75.785156 148.898438 75.140625 149.066406 74.519531 148.96875 C 74.707031 147.882812 74.703125 146.042969 73.765625 145.289062 C 73.722656 144.902344 73.671875 144.535156 73.648438 144.167969 C 73.636719 144.003906 73.695312 143.839844 73.917969 143.84375 L 73.90625 143.847656 C 74.101562 143.886719 74.296875 143.925781 74.597656 143.988281 C 74.171875 143.199219 74.050781 142.363281 73.277344 141.992188 C 73.277344 141.113281 73.277344 140.296875 73.277344 139.410156 C 73.453125 139.136719 73.671875 138.792969 73.898438 138.453125 C 74.101562 138.148438 74.308594 137.851562 74.523438 137.535156 C 74.453125 137.386719 74.335938 137.320312 74.167969 137.464844 C 73.933594 137.671875 73.71875 137.605469 73.492188 137.449219 C 73.152344 137.214844 72.992188 136.875 72.957031 136.496094 C 72.917969 136.09375 72.960938 135.679688 72.96875 135.242188 C 73.234375 135.226562 73.433594 135.21875 73.628906 135.207031 C 73.65625 135.054688 73.6875 134.902344 73.714844 134.75 C 73.148438 134.582031 72.625 135.035156 71.976562 134.863281 C 72.191406 133.839844 72.074219 132.773438 72.398438 131.746094 C 72.558594 131.246094 72.851562 130.878906 73.292969 130.605469 C 73.332031 130.660156 73.425781 130.746094 73.410156 130.773438 C 73.015625 131.449219 73.125 132.183594 73.15625 132.910156 C 73.289062 132.832031 73.488281 132.761719 73.5 132.667969 C 73.542969 132.339844 73.488281 132 73.882812 131.832031 C 73.921875 131.816406 73.949219 131.632812 73.917969 131.613281 C 73.503906 131.324219 73.949219 131.003906 73.875 130.730469 C 73.675781 129.972656 73.945312 129.191406 73.675781 128.433594 C 73.546875 128.070312 73.558594 127.644531 73.605469 127.226562 C 73.691406 126.496094 73.746094 125.75 73.320312 125.054688 C 73.191406 124.84375 73.253906 124.5 73.277344 124.21875 C 73.320312 123.734375 73.398438 123.25 73.464844 122.734375 C 73.558594 122.734375 73.675781 122.734375 73.84375 122.734375 C 73.84375 122.390625 73.734375 121.996094 73.871094 121.710938 C 74.046875 121.339844 73.972656 121.003906 73.980469 120.644531 C 73.992188 120.277344 74.070312 119.910156 74.101562 119.542969 C 74.117188 119.339844 74.105469 119.132812 74.082031 118.929688 C 73.96875 117.957031 74.195312 117.640625 75.199219 117.375 C 75.316406 117.34375 75.421875 117.277344 75.535156 117.222656 L 75.558594 117.230469 C 76.257812 117.175781 76.957031 117 77.59375 117.207031 C 77.964844 117.675781 78.292969 118.089844 78.65625 118.542969 C 78.769531 118.742188 77.714844 118.902344 78.582031 119.191406 C 78.71875 119.507812 78.859375 119.828125 78.996094 120.144531 C 79.003906 120.148438 79.007812 120.152344 79.015625 120.15625 C 79.125 119.695312 79.132812 119.695312 79.632812 119.679688 C 79.632812 119.914062 79.617188 120.148438 79.636719 120.382812 C 79.660156 120.613281 79.71875 120.84375 79.761719 121.078125 C 79.40625 121.167969 79.324219 120.957031 79.246094 120.789062 C 79.15625 120.582031 79.246094 120.304688 79.015625 120.15625 C 79.011719 120.164062 79.011719 120.167969 79.011719 120.175781 C 79.007812 120.164062 79 120.15625 78.996094 120.144531 C 78.988281 120.140625 78.984375 120.136719 78.976562 120.132812 C 79.054688 121.074219 79.097656 121.164062 79.808594 121.9375 C 79.863281 121.996094 79.960938 122.0625 79.957031 122.121094 C 79.910156 122.84375 80.515625 123.082031 80.917969 123.410156 C 81.285156 124.28125 81.378906 125.117188 81.007812 125.980469 C 80.898438 126.238281 80.875 126.554688 80.902344 126.835938 C 80.9375 127.144531 80.816406 127.375 80.722656 127.648438 C 80.542969 128.179688 80.371094 128.726562 80.855469 129.257812 C 81.050781 129.46875 81.050781 129.855469 81.171875 130.277344 C 81.292969 130.042969 81.445312 129.886719 81.441406 129.730469 C 81.4375 129.402344 81.34375 129.078125 81.296875 128.753906 C 81.242188 128.394531 81.597656 128.199219 81.671875 127.921875 C 81.746094 127.632812 81.445312 127.203125 81.570312 126.980469 C 81.933594 126.347656 81.867188 125.59375 82.214844 124.992188 C 82.550781 124.402344 83.023438 123.886719 83.449219 123.324219 C 83.285156 123.121094 82.914062 123.550781 82.773438 123.15625 C 82.714844 122.988281 82.664062 122.761719 82.871094 122.785156 C 83.359375 122.851562 83.464844 122.5625 83.496094 122.214844 C 83.53125 121.847656 83.503906 121.476562 83.503906 121.21875 C 83.816406 120.851562 84.050781 120.582031 84.273438 120.3125 C 83.582031 119.453125 83.105469 118.398438 83.1875 117.3125 " fill-opacity="1" fill-rule="nonzero"/></g></svg>